<svg xmlns="http://www.w3.org/2000/svg" xmlns:xlink="http://www.w3.org/1999/xlink" aria-hidden="true" role="img" class="iconify iconify--logos" width="31.88" height="32" preserveAspectRatio="xMidYMid meet" viewBox="0 0 256 257"><defs><linearGradient id="IconifyId1813088fe1fbc01fb466" x1="-.828%" x2="57.636%" y1="7.652%" y2="78.411%"><stop offset="0%" stop-color="#41D1FF"></stop><stop offset="100%" stop-color="#BD34FE"></stop></linearGradient><linearGradient id="IconifyId1813088fe1fbc01fb467" x1="43.376%" x2="50.316%" y1="2.242%" y2="89.03%"><stop offset="0%" stop-color="#FFBD4F"></stop><stop offset="100%" stop-color="#FF980E"></stop></linearGradient></defs><path fill="url(#IconifyId1813088fe1fbc01fb466)" d="M255.153 37.938L134.897 252.976c-2.483 4.44-8.862 4.466-11.382.048L.875 37.958c-2.746-4.814 1.371-10.646 6.827-9.67l120.385 21.517a6.537 6.537 0 0 0 2.322-.004l117.867-21.483c5.438-.991 9.258 4.796 6.877 9.62Z"></path><path fill="url(#IconifyId1813088fe1fbc01fb467)" d="M185.432.063L96.44 17.501a3.268 3.268 0 0 0-2.634 3.014l5.918 122.264a3.268 3.268 0 0 0 3.997 3.013l24.226-5.718c2.318-.547 4.413 1.313 4.413 3.69v44.318c0 2.04 1.744 3.676 3.872 3.392l35.965-4.649c2.14-.276 3.872 1.444 3.872 3.392v25.957c0 2.04 1.744 3.676 3.872 3.392l35.965-4.649c2.14-.276 3.872 1.444 3.872 3.392V93.72c0 1.96-1.54 3.563-3.485 3.675l-33.027 2.724c-2.027.167-3.715-1.434-3.715-3.44V66.414c0-2.04 1.744-3.676 3.872-3.392l35.965 4.649c2.14.276 3.872-1.352 3.872-3.392V37.059c0-2.04 1.744-3.676 3.872-3.392l35.965 4.649c2.14.276 3.872-1.352 3.872-3.392V3.456c0-2.107-1.816-3.647-3.968-3.392L185.432.063Z"></path></svg>
